<svg xmlns="http://www.w3.org/2000/svg" width="48" height="48"><path d="M2.613 1.236a1.25 1.25 0 0 0-1.011 2.03L5.205 7.93A2.993 2.993 0 0 0 5.002 9v7c0 1.662 1.338 3 3 3h32c1.662 0 3-1.338 3-3V9c0-.38-.077-.74-.205-1.074l3.601-4.66a1.25 1.25 0 0 0-1.048-2.028 1.25 1.25 0 0 0-.93.498l-3.432 4.442A2.987 2.987 0 0 0 40.002 6h-32c-.349 0-.678.069-.988.178L3.58 1.736a1.25 1.25 0 0 0-.967-.5zM14.375 9.75a3.375 3.375 0 0 1 3.375 3.375 3.375 3.375 0 0 1-3.375 3.375A3.375 3.375 0 0 1 11 13.125a3.375 3.375 0 0 1 3.375-3.375zm19.5 0a3.375 3.375 0 0 1 3.375 3.375 3.375 3.375 0 0 1-3.375 3.375 3.375 3.375 0 0 1-3.375-3.375 3.375 3.375 0 0 1 3.375-3.375z" style="color:#000;font-style:normal;font-variant:normal;font-weight:400;font-stretch:normal;font-size:medium;line-height:normal;font-family:sans-serif;text-indent:0;text-align:start;text-decoration:none;text-decoration-line:none;text-decoration-style:solid;text-decoration-color:#000;letter-spacing:normal;word-spacing:normal;text-transform:none;direction:ltr;block-progression:tb;writing-mode:lr-tb;baseline-shift:baseline;text-anchor:start;white-space:normal;clip-rule:nonzero;display:inline;overflow:visible;visibility:visible;opacity:1;isolation:auto;mix-blend-mode:normal;color-interpolation:sRGB;color-interpolation-filters:linearRGB;solid-color:#000;solid-opacity:1;fill:#fff;fill-opacity:1;fill-rule:evenodd;stroke:none;stroke-width:2.5;stroke-linecap:round;stroke-linejoin:miter;stroke-miterlimit:4;stroke-dasharray:none;stroke-dashoffset:0;stroke-opacity:1;color-rendering:auto;image-rendering:auto;shape-rendering:auto;text-rendering:auto;enable-background:accumulate"/><path d="M8.002 1024.362c-.208 0-.41.02-.606.06a2.971 2.971 0 0 0-2.394 2.91v20.027c0 1.662 1.338 3 3 3h32c1.662 0 3-1.338 3-3v-20.027a2.971 2.971 0 0 0-2.395-2.91 3.092 3.092 0 0 0-.605-.06h-32z" style="color:#000;font-style:normal;font-variant:normal;font-weight:400;font-stretch:normal;font-size:medium;line-height:normal;font-family:sans-serif;text-indent:0;text-align:start;text-decoration:none;text-decoration-line:none;text-decoration-style:solid;text-decoration-color:#000;letter-spacing:normal;word-spacing:normal;text-transform:none;direction:ltr;block-progression:tb;writing-mode:lr-tb;baseline-shift:baseline;text-anchor:start;white-space:normal;clip-rule:nonzero;display:inline;overflow:visible;visibility:visible;opacity:1;isolation:auto;mix-blend-mode:normal;color-interpolation:sRGB;color-interpolation-filters:linearRGB;solid-color:#000;solid-opacity:1;fill:#fff;fill-opacity:1;fill-rule:evenodd;stroke:none;stroke-width:2.5;stroke-linecap:round;stroke-linejoin:miter;stroke-miterlimit:4;stroke-dasharray:none;stroke-dashoffset:0;stroke-opacity:1;color-rendering:auto;image-rendering:auto;shape-rendering:auto;text-rendering:auto;enable-background:accumulate" transform="translate(0 -1004.362)"/></svg>