<svg xmlns="http://www.w3.org/2000/svg" width="96" height="96" viewBox="0 0 25.4 25.4"><g style="display:inline"><g style="display:inline"><path style="fill:#000;fill-opacity:1;fill-rule:evenodd;stroke:none;stroke-width:.66440314;stroke-linecap:butt;stroke-linejoin:round;stroke-miterlimit:4;stroke-dasharray:none;stroke-opacity:1" d="M5.873 20.44a3.2 3.2 0 0 0-3.207 3.206V83.58a3.2 3.2 0 0 0 3.207 3.205H23.26a3.967 3.967 0 0 1-.342-1.603v-55.44a3.272 3.272 0 0 1-.047.002 3.272 3.272 0 0 1-3.271-3.273 3.272 3.272 0 0 1 3.197-3.272 3.272 3.272 0 0 1 .074 0 3.272 3.272 0 0 1 .047.002V20.44z" transform="translate(1.535 2.781) scale(.23259)"/><path style="display:inline;fill:#000;fill-opacity:1;fill-rule:evenodd;stroke:none;stroke-width:.59481531;stroke-linecap:butt;stroke-linejoin:round;stroke-miterlimit:4;stroke-dasharray:none;stroke-opacity:1" d="M22.83 24.08a2.38 2.38 0 0 0-2.338 2.379 2.38 2.38 0 0 0 2.338 2.377z" transform="translate(1.535 2.781) scale(.23259)"/></g><g style="display:inline"><path style="fill:#000;fill-opacity:1;fill-rule:evenodd;stroke:none;stroke-width:.66440314;stroke-linecap:butt;stroke-linejoin:round;stroke-miterlimit:4;stroke-dasharray:none;stroke-opacity:1" d="M5.873 20.44a3.2 3.2 0 0 0-3.207 3.206V83.58a3.2 3.2 0 0 0 3.207 3.205H23.26a3.967 3.967 0 0 1-.342-1.603v-55.44a3.272 3.272 0 0 1-.047.002 3.272 3.272 0 0 1-3.271-3.273 3.272 3.272 0 0 1 3.197-3.272 3.272 3.272 0 0 1 .074 0 3.272 3.272 0 0 1 .047.002V20.44z" transform="matrix(-.23259 0 0 .23259 23.857 2.78)"/><path style="display:inline;fill:#000;fill-opacity:1;fill-rule:evenodd;stroke:none;stroke-width:.59481531;stroke-linecap:butt;stroke-linejoin:round;stroke-miterlimit:4;stroke-dasharray:none;stroke-opacity:1" d="M22.83 24.08a2.38 2.38 0 0 0-2.338 2.379 2.38 2.38 0 0 0 2.338 2.377z" transform="matrix(-.23259 0 0 .23259 23.857 2.78)"/></g></g><g transform="translate(1.535 4.924) scale(.87908)" style="display:inline"><path style="fill:#000;fill-opacity:1;fill-rule:evenodd;stroke:none;stroke-width:.205533;stroke-linecap:butt;stroke-linejoin:round;stroke-miterlimit:4;stroke-dasharray:none;stroke-opacity:1" d="M7.441 0a.99.99 0 0 0-.991.992v18.54c0 .55.442.992.991.992H17.96a.99.99 0 0 0 .991-.992V.992A.99.99 0 0 0 17.96 0zm5.236.853a1.012 1.012 0 0 1 .023 0 1.012 1.012 0 0 1 1.012 1.013A1.012 1.012 0 0 1 12.7 2.878a1.012 1.012 0 0 1-1.012-1.012 1.012 1.012 0 0 1 .989-1.013z"/><circle style="display:inline;fill:#000;fill-opacity:1;fill-rule:evenodd;stroke:none;stroke-width:.18400601;stroke-linecap:butt;stroke-linejoin:round;stroke-miterlimit:4;stroke-dasharray:none;stroke-opacity:1" cx="12.7" cy="1.862" r=".736"/></g></svg>