<svg xmlns="http://www.w3.org/2000/svg" width="96" height="96" viewBox="0 0 25.4 25.4"><g style="display:inline"><path style="fill:#000;fill-opacity:1;fill-rule:evenodd;stroke:none;stroke-width:.6902712;stroke-linecap:butt;stroke-linejoin:round;stroke-miterlimit:4;stroke-dasharray:none;stroke-opacity:1" d="M30.145 18.611c-1.866 0-3.368 1.47-3.368 3.295V83.49c0 1.825 1.502 3.295 3.368 3.295h6.93l32.15-32.178v-32.7c0-1.826-1.502-3.296-3.368-3.296zm17.777 2.834H48c1.899 0 3.438 1.506 3.438 3.364-.001 1.856-1.54 3.361-3.438 3.36-1.898.001-3.437-1.504-3.437-3.36-.001-1.828 1.49-3.322 3.359-3.364z" transform="scale(.26458)"/><ellipse cy="6.56" cx="12.7" style="display:inline;fill:#000;fill-opacity:1;fill-rule:evenodd;stroke:none;stroke-width:.16350561;stroke-linecap:butt;stroke-linejoin:round;stroke-miterlimit:4;stroke-dasharray:none;stroke-opacity:1" rx=".661" ry=".647"/></g><g style="display:inline"><path d="M22.194 16.037a.556.556 0 0 0 0-.787l-1.306-1.306a.556.556 0 0 0-.787 0l-1.027 1.022 2.093 2.093m-8.858 4.677v2.093h2.093l6.173-6.179-2.093-2.093z" style="stroke-width:.55816782"/></g></svg>