<svg xmlns="http://www.w3.org/2000/svg" width="30" height="30"><g fill="#FFF" fill-rule="evenodd"><path d="M22.423 4.035c-1.253-1.427-3.517-2.039-6.413-2.039H7.603c-.592 0-1.096.43-1.188 1.015L2.914 25.208c-.07.438.27.834.713.834h5.19l-.358 2.272c-.06.383.235.73.623.73h4.375c.518 0 .959-.377 1.04-.889l.042-.222.824-5.225.054-.29c.08-.51.521-.887 1.039-.887h.654c4.238 0 7.557-1.722 8.527-6.701.405-2.08.195-3.818-.876-5.039a4.17 4.17 0 0 0-1.198-.923c.33-2.104-.002-3.536-1.14-4.833z" fill-opacity=".68"/><path d="M23.563 8.868c.33-2.104-.002-3.536-1.14-4.832-1.253-1.428-3.517-2.04-6.413-2.04H7.603c-.592 0-1.096.43-1.188 1.015l-3.501 22.2c-.07.438.27.834.713.834h5.19l1.304-8.268-.04.26a1.199 1.199 0 0 1 1.183-1.016h2.467c4.845 0 8.638-1.968 9.746-7.66.033-.169.061-.332.086-.493" fill-opacity=".7"/><path d="M11.521 8.896a1.053 1.053 0 0 1 1.04-.888h6.59c.78 0 1.508.051 2.174.158a9.54 9.54 0 0 1 1.078.24 5.93 5.93 0 0 1 1.16.462c.33-2.104-.002-3.536-1.14-4.832-1.253-1.428-3.517-2.04-6.413-2.04H7.603c-.592 0-1.096.43-1.188 1.015l-3.501 22.2c-.07.438.27.834.713.834h5.19L11.52 8.896"/></g></svg>