<?xml version="1.0" encoding="UTF-8" standalone="no"?>
<svg
   xmlns:dc="http://purl.org/dc/elements/1.1/"
   xmlns:cc="http://creativecommons.org/ns#"
   xmlns:rdf="http://www.w3.org/1999/02/22-rdf-syntax-ns#"
   xmlns:svg="http://www.w3.org/2000/svg"
   xmlns="http://www.w3.org/2000/svg"
   xmlns:xlink="http://www.w3.org/1999/xlink"
   xmlns:sodipodi="http://sodipodi.sourceforge.net/DTD/sodipodi-0.dtd"
   xmlns:inkscape="http://www.inkscape.org/namespaces/inkscape"
   width="108pt"
   height="108pt"
   viewBox="0 0 38.1 38.1"
   version="1.1"
   id="svg8"
   inkscape:version="1.0 (b51213c273, 2020-08-10)"
   sodipodi:docname="app-icon.svg">
  <sodipodi:namedview
     id="base"
     pagecolor="#ffffff"
     bordercolor="#666666"
     borderopacity="1.0"
     inkscape:pageopacity="0.0"
     inkscape:pageshadow="2"
     inkscape:zoom="5.6568543"
     inkscape:cx="-22.9731"
     inkscape:cy="99.689145"
     inkscape:document-units="pt"
     inkscape:current-layer="layer1"
     inkscape:document-rotation="0"
     showgrid="false"
     units="pt"
     inkscape:window-width="2560"
     inkscape:window-height="1372"
     inkscape:window-x="0"
     inkscape:window-y="0"
     inkscape:window-maximized="1" />
  <metadata
     id="metadata5">
    <rdf:RDF>
      <cc:Work
         rdf:about="">
        <dc:format>image/svg+xml</dc:format>
        <dc:type
           rdf:resource="http://purl.org/dc/dcmitype/StillImage" />
        <dc:title></dc:title>
      </cc:Work>
    </rdf:RDF>
  </metadata>
  <g
     inkscape:groupmode="layer"
     id="layer2"
     inkscape:label="Foreground"
     style="display:inline"
     sodipodi:insensitive="true">
    <path
       id="rect942"
       style="fill:#000000;fill-opacity:1;fill-rule:evenodd;stroke:none;stroke-width:0.776818;stroke-linecap:butt;stroke-linejoin:round;stroke-miterlimit:4;stroke-dasharray:none;stroke-opacity:1"
       d="m 52.125,33.214844 c -2.076472,0 -3.748047,1.671572 -3.748047,3.748047 v 70.074219 c 0,2.07648 1.671575,3.74805 3.748047,3.74805 h 39.75 c 2.076476,0 3.748047,-1.67157 3.748047,-3.74805 V 36.962891 c 0,-2.076475 -1.671571,-3.748047 -3.748047,-3.748047 z m 19.787109,3.224609 a 3.826043,3.826043 0 0 1 0.08789,0 3.826043,3.826043 0 0 1 3.826172,3.826172 A 3.826043,3.826043 0 0 1 72,44.091797 3.826043,3.826043 0 0 1 68.173828,40.265625 3.826043,3.826043 0 0 1 71.912109,36.439453 Z"
       transform="scale(0.26458333)" />
    <circle
       style="display:inline;fill:#000000;fill-opacity:1;fill-rule:evenodd;stroke:none;stroke-width:0.184006;stroke-linecap:butt;stroke-linejoin:round;stroke-miterlimit:4;stroke-dasharray:none;stroke-opacity:1"
       id="path951"
       cx="19.065119"
       cy="10.649758"
       r="0.73602396" />
  </g>
</svg>
