<?xml version="1.0" encoding="UTF-8" standalone="no"?>
<svg
   xmlns:dc="http://purl.org/dc/elements/1.1/"
   xmlns:cc="http://creativecommons.org/ns#"
   xmlns:rdf="http://www.w3.org/1999/02/22-rdf-syntax-ns#"
   xmlns:svg="http://www.w3.org/2000/svg"
   xmlns="http://www.w3.org/2000/svg"
   xmlns:sodipodi="http://sodipodi.sourceforge.net/DTD/sodipodi-0.dtd"
   xmlns:inkscape="http://www.inkscape.org/namespaces/inkscape"
   width="72pt"
   height="72pt"
   viewBox="0 0 25.4 25.4"
   version="1.1"
   id="svg8"
   inkscape:version="0.92.5 (2060ec1f9f, 2020-04-08)"
   sodipodi:docname="group-edit-icon.svg">
  <defs
     id="defs8" />
  <sodipodi:namedview
     id="base"
     pagecolor="#ffffff"
     bordercolor="#666666"
     borderopacity="1.0"
     inkscape:pageopacity="0.0"
     inkscape:pageshadow="2"
     inkscape:zoom="16"
     inkscape:cx="64.664848"
     inkscape:cy="37.806491"
     inkscape:document-units="pt"
     inkscape:current-layer="layer5"
     inkscape:document-rotation="0"
     showgrid="false"
     units="pt"
     inkscape:window-width="2560"
     inkscape:window-height="1372"
     inkscape:window-x="0"
     inkscape:window-y="0"
     inkscape:window-maximized="1"
     showguides="true"
     inkscape:guide-bbox="true">
    <sodipodi:guide
       position="11.600325,2.4473958"
       orientation="0,1"
       id="guide907"
       inkscape:locked="false" />
    <sodipodi:guide
       position="10.102788,23.596558"
       orientation="0,1"
       id="guide4679"
       inkscape:locked="false" />
    <sodipodi:guide
       position="6.0569956,24.508615"
       orientation="1,0"
       id="guide4681"
       inkscape:locked="false" />
    <sodipodi:guide
       position="24.765862,14.616302"
       orientation="0,1"
       id="guide929"
       inkscape:locked="false" />
    <sodipodi:guide
       position="27.735895,11.693042"
       orientation="1,0"
       id="guide931"
       inkscape:locked="false" />
  </sodipodi:namedview>
  <metadata
     id="metadata5">
    <rdf:RDF>
      <cc:Work
         rdf:about="">
        <dc:format>image/svg+xml</dc:format>
        <dc:type
           rdf:resource="http://purl.org/dc/dcmitype/StillImage" />
        <dc:title />
      </cc:Work>
    </rdf:RDF>
  </metadata>
  <g
     inkscape:groupmode="layer"
     id="layer5"
     inkscape:label="Group"
     style="display:inline">
    <g
       id="g834"
       style="display:inline"
       transform="translate(2.1990192e-4,1.5026789e-4)">
      <path
         id="path830"
         transform="matrix(0.23259,0,0,0.23259,1.535,2.781)"
         d="M 5.873,20.44 A 3.2,3.2 0 0 0 2.666,23.646 V 83.58 a 3.2,3.2 0 0 0 3.207,3.205 H 23.26 a 3.967,3.967 0 0 1 -0.342,-1.603 v -55.44 a 3.272,3.272 0 0 1 -0.047,0.002 3.272,3.272 0 0 1 -3.271,-3.273 3.272,3.272 0 0 1 3.197,-3.272 3.272,3.272 0 0 1 0.074,0 3.272,3.272 0 0 1 0.047,0.002 V 20.44 Z"
         style="fill:#000000;fill-opacity:1;fill-rule:evenodd;stroke:none;stroke-width:0.66440314;stroke-linecap:butt;stroke-linejoin:round;stroke-miterlimit:4;stroke-dasharray:none;stroke-opacity:1"
         inkscape:connector-curvature="0" />
      <path
         id="path832"
         transform="matrix(0.23259,0,0,0.23259,1.535,2.781)"
         d="m 22.83,24.08 a 2.38,2.38 0 0 0 -2.338,2.379 2.38,2.38 0 0 0 2.338,2.377 z"
         style="display:inline;fill:#000000;fill-opacity:1;fill-rule:evenodd;stroke:none;stroke-width:0.59481531;stroke-linecap:butt;stroke-linejoin:round;stroke-miterlimit:4;stroke-dasharray:none;stroke-opacity:1"
         inkscape:connector-curvature="0" />
    </g>
    <path
       style="fill:#000000;fill-opacity:1;fill-rule:evenodd;stroke:none;stroke-width:0.58406371;stroke-linecap:butt;stroke-linejoin:round;stroke-miterlimit:4;stroke-dasharray:none;stroke-opacity:1"
       d="m 70.021484,28.476562 v 2.425782 c 0.01432,-1.07e-4 0.02865,-1.07e-4 0.04297,0 0.02148,-2.41e-4 0.04297,-2.41e-4 0.06445,0 1.562284,0.03575 2.810222,1.312308 2.810547,2.875 3.33e-4,1.588272 -1.286728,2.876207 -2.875,2.876953 -0.01433,-5.44e-4 -0.02865,-0.0012 -0.04297,-0.002 V 62.914062 L 85.015625,47.90625 87.826172,45.111328 V 31.294922 c 0.0029,-1.558518 -1.261797,-2.822383 -2.820313,-2.81836 z"
       transform="scale(0.26458333)"
       id="path836"
       inkscape:connector-curvature="0"
       sodipodi:nodetypes="ccccccccccccc" />
    <path
       inkscape:connector-curvature="0"
       style="display:inline;fill:#000000;fill-opacity:1;fill-rule:evenodd;stroke:none;stroke-width:0.13834809;stroke-linecap:butt;stroke-linejoin:round;stroke-miterlimit:4;stroke-dasharray:none;stroke-opacity:1"
       d="M 18.54719,8.3809175 A 0.5535642,0.5535642 0 0 1 19.090986,8.9342491 0.5535642,0.5535642 0 0 1 18.54719,9.4871155 Z"
       id="path838" />
    <path
       style="fill:#000000;fill-opacity:1;fill-rule:evenodd;stroke:none;stroke-width:0.68288481;stroke-linecap:butt;stroke-linejoin:round;stroke-miterlimit:4;stroke-dasharray:none;stroke-opacity:1"
       d="M 30.525391 18.611328 A 3.289282 3.289282 0 0 0 27.232422 21.90625 L 27.232422 83.505859 C 27.232422 85.333238 28.701334 86.802734 30.525391 86.802734 L 46.142578 86.802734 L 68.767578 64.158203 L 68.767578 21.90625 A 3.289282 3.289282 0 0 0 65.474609 18.611328 L 30.525391 18.611328 z M 47.921875 21.445312 A 3.3623772 3.3623772 0 0 1 47.998047 21.445312 A 3.3623772 3.3623772 0 0 1 51.361328 24.810547 A 3.3623772 3.3623772 0 0 1 47.998047 28.173828 A 3.3623772 3.3623772 0 0 1 44.636719 24.810547 A 3.3623772 3.3623772 0 0 1 47.921875 21.445312 z "
       transform="scale(0.26458333)"
       id="path844" />
    <circle
       id="circle846"
       r="0.64700288"
       cy="6.5609975"
       cx="12.699535"
       style="display:inline;fill:#000000;fill-opacity:1;fill-rule:evenodd;stroke:none;stroke-width:0.16175599;stroke-linecap:butt;stroke-linejoin:round;stroke-miterlimit:4;stroke-dasharray:none;stroke-opacity:1" />
  </g>
  <g
     inkscape:groupmode="layer"
     id="layer7"
     inkscape:label="Pencil outline"
     style="display:none">
    <path
       id="path882-3-6"
       d="m -3.090483,15.111185 c 0.347542,-0.347548 0.347542,-0.926783 0,-1.256503 l -2.085255,-2.085251 c -0.329734,-0.347544 -0.908955,-0.347544 -1.256498,0 l -1.6396849,1.630773 3.3417529,3.341751 m -14.142291,7.467704 v 3.341754 h 3.341753 L -4.730168,16.741955 -8.0719209,13.400204 Z"
       inkscape:connector-curvature="0"
       style="fill:#00ff00;stroke-width:0.89113396"
       sodipodi:nodetypes="cccccccccccc" />
  </g>
  <g
     inkscape:groupmode="layer"
     id="layer6"
     inkscape:label="Pencil"
     style="display:inline">
    <path
       id="path882"
       d="m 24.575412,16.037311 c 0.217687,-0.217688 0.217687,-0.580496 0,-0.787018 L 23.269299,13.94418 c -0.206531,-0.217685 -0.569331,-0.217685 -0.787016,0 l -1.02703,1.021447 2.093131,2.093129 m -8.858125,4.677446 v 2.093131 h 2.093131 l 6.173336,-6.17892 -2.093129,-2.093128 z"
       inkscape:connector-curvature="0"
       style="stroke-width:0.55816782" />
  </g>
</svg>
