<?xml version="1.0" encoding="UTF-8" standalone="no"?>
<svg
   xmlns:dc="http://purl.org/dc/elements/1.1/"
   xmlns:cc="http://creativecommons.org/ns#"
   xmlns:rdf="http://www.w3.org/1999/02/22-rdf-syntax-ns#"
   xmlns:svg="http://www.w3.org/2000/svg"
   xmlns="http://www.w3.org/2000/svg"
   xmlns:sodipodi="http://sodipodi.sourceforge.net/DTD/sodipodi-0.dtd"
   xmlns:inkscape="http://www.inkscape.org/namespaces/inkscape"
   width="72pt"
   height="72pt"
   viewBox="0 0 25.4 25.4"
   version="1.1"
   id="svg8"
   inkscape:version="0.92.5 (2060ec1f9f, 2020-04-08)"
   sodipodi:docname="nickname-icon.svg">
  <defs
     id="defs8" />
  <sodipodi:namedview
     id="base"
     pagecolor="#ffffff"
     bordercolor="#666666"
     borderopacity="1.0"
     inkscape:pageopacity="0.0"
     inkscape:pageshadow="2"
     inkscape:zoom="5.6568543"
     inkscape:cx="52.036832"
     inkscape:cy="32.016782"
     inkscape:document-units="pt"
     inkscape:current-layer="layer2"
     inkscape:document-rotation="0"
     showgrid="false"
     units="pt"
     inkscape:window-width="2560"
     inkscape:window-height="1372"
     inkscape:window-x="0"
     inkscape:window-y="0"
     inkscape:window-maximized="1"
     showguides="true"
     inkscape:guide-bbox="true">
    <sodipodi:guide
       position="11.600325,2.4473958"
       orientation="0,1"
       id="guide907"
       inkscape:locked="false" />
    <sodipodi:guide
       position="10.102788,23.596558"
       orientation="0,1"
       id="guide4679"
       inkscape:locked="false" />
    <sodipodi:guide
       position="6.0569956,24.508615"
       orientation="1,0"
       id="guide4681"
       inkscape:locked="false" />
    <sodipodi:guide
       position="24.765862,14.616302"
       orientation="0,1"
       id="guide929"
       inkscape:locked="false" />
    <sodipodi:guide
       position="25.338822,11.634577"
       orientation="1,0"
       id="guide931"
       inkscape:locked="false" />
  </sodipodi:namedview>
  <metadata
     id="metadata5">
    <rdf:RDF>
      <cc:Work
         rdf:about="">
        <dc:format>image/svg+xml</dc:format>
        <dc:type
           rdf:resource="http://purl.org/dc/dcmitype/StillImage" />
        <dc:title />
      </cc:Work>
    </rdf:RDF>
  </metadata>
  <g
     inkscape:groupmode="layer"
     id="layer2"
     inkscape:label="Icon"
     style="display:inline">
    <path
       style="fill:#000000;fill-opacity:1;fill-rule:evenodd;stroke:none;stroke-width:0.6902712;stroke-linecap:butt;stroke-linejoin:round;stroke-miterlimit:4;stroke-dasharray:none;stroke-opacity:1"
       d="m 30.144531,18.611328 c -1.865551,0 -3.367187,1.469988 -3.367187,3.294922 v 61.583984 c 0,1.824938 1.501636,3.294922 3.367187,3.294922 h 6.929688 L 69.224609,54.607422 V 21.90625 c 0,-1.824934 -1.501635,-3.294922 -3.367187,-3.294922 z m 17.777344,2.833984 c 0.02604,-2.9e-4 0.05208,-2.9e-4 0.07813,0 1.898751,-5.1e-5 3.437907,1.505873 3.4375,3.363282 -6.96e-4,1.856645 -1.539529,3.361379 -3.4375,3.361328 -1.897971,5.1e-5 -3.436804,-1.504683 -3.4375,-3.361328 -8.82e-4,-1.827966 1.491203,-3.321786 3.359375,-3.363282 z"
       transform="scale(0.26458333)"
       id="rect942"
       inkscape:connector-curvature="0"
       sodipodi:nodetypes="ssssccssscccccc" />
    <ellipse
       cy="6.5603919"
       cx="12.700222"
       id="path951"
       style="display:inline;fill:#000000;fill-opacity:1;fill-rule:evenodd;stroke:none;stroke-width:0.16350561;stroke-linecap:butt;stroke-linejoin:round;stroke-miterlimit:4;stroke-dasharray:none;stroke-opacity:1"
       rx="0.66126108"
       ry="0.64686298" />
  </g>
  <g
     inkscape:groupmode="layer"
     id="layer7"
     inkscape:label="Pencil outline"
     style="display:none">
    <path
       id="path882-3-6-1"
       d="m -3.252616,15.987082 c 0.347541,-0.347548 0.347541,-0.926783 0,-1.256503 l -2.085256,-2.085251 c -0.329734,-0.347544 -0.908955,-0.347544 -1.256498,0 l -1.639685,1.630773 3.341753,3.34175 m -14.142301,7.467704 v 3.341754 h 3.341764 l 10.800537,-10.809458 -3.341753,-3.34175 z"
       inkscape:connector-curvature="0"
       style="display:inline;fill:#00ff00;stroke-width:0.89113396"
       sodipodi:nodetypes="cccccccccccc" />
  </g>
  <g
     inkscape:groupmode="layer"
     id="layer6"
     inkscape:label="Pencil"
     style="display:inline">
    <path
       id="path882"
       d="m 22.194156,16.037311 c 0.217687,-0.217688 0.217687,-0.580496 0,-0.787018 L 20.888043,13.94418 c -0.206531,-0.217685 -0.569331,-0.217685 -0.787016,0 l -1.02703,1.021447 2.093131,2.093129 m -8.858125,4.677446 v 2.093131 h 2.093131 l 6.173336,-6.17892 -2.093129,-2.093128 z"
       inkscape:connector-curvature="0"
       style="stroke-width:0.55816782" />
  </g>
</svg>
