<svg xmlns="http://www.w3.org/2000/svg" width="90.709" height="90.709" viewBox="0 0 24 24"><path d="M12 .333C5.394.333.038 5.69.038 12.296c0 5.285 3.427 9.768 8.18 11.35.598.11.817-.26.817-.577l-.016-2.034C5.692 21.758 5 19.43 5 19.43c-.544-1.382-1.328-1.75-1.328-1.75-1.086-.742.082-.727.082-.727 1.2.084 1.832 1.233 1.832 1.233 1.067 1.828 2.8 1.3 3.482.994.11-.773.417-1.3.76-1.6-2.656-.302-5.45-1.328-5.45-5.912 0-1.306.466-2.373 1.23-3.2-.123-.303-.534-1.52.117-3.166 0 0 1.005-.322 3.3 1.226a11.405 11.405 0 0 1 2.995-.402c1.016.004 2.04.137 2.995.402 2.284-1.548 3.286-1.226 3.286-1.226.653 1.647.242 2.863.12 3.166.767.836 1.23 1.904 1.23 3.2 0 4.595-2.797 5.607-5.462 5.903.43.37.812 1.1.812 2.216l-.015 3.28c0 .32.215.692.822.576 4.75-1.585 8.174-6.066 8.174-11.35C23.962 5.69 18.606.333 12 .333" fill="#fff" fill-rule="evenodd"/></svg>