<svg xmlns="http://www.w3.org/2000/svg" width="96" height="96" viewBox="0 0 25.4 25.4"><g style="display:inline"><g style="display:inline"><path transform="translate(1.535 2.78) scale(.23259)" d="M5.873 20.44a3.2 3.2 0 0 0-3.207 3.206V83.58a3.2 3.2 0 0 0 3.207 3.205H23.26a3.967 3.967 0 0 1-.342-1.603v-55.44a3.272 3.272 0 0 1-.047.002 3.272 3.272 0 0 1-3.271-3.273 3.272 3.272 0 0 1 3.197-3.272 3.272 3.272 0 0 1 .074 0 3.272 3.272 0 0 1 .047.002V20.44z" style="fill:#000;fill-opacity:1;fill-rule:evenodd;stroke:none;stroke-width:.66440314;stroke-linecap:butt;stroke-linejoin:round;stroke-miterlimit:4;stroke-dasharray:none;stroke-opacity:1"/><path transform="translate(1.535 2.78) scale(.23259)" d="M22.83 24.08a2.38 2.38 0 0 0-2.338 2.379 2.38 2.38 0 0 0 2.338 2.377z" style="display:inline;fill:#000;fill-opacity:1;fill-rule:evenodd;stroke:none;stroke-width:.59481531;stroke-linecap:butt;stroke-linejoin:round;stroke-miterlimit:4;stroke-dasharray:none;stroke-opacity:1"/></g><path style="fill:#000;fill-opacity:1;fill-rule:evenodd;stroke:none;stroke-width:.58406371;stroke-linecap:butt;stroke-linejoin:round;stroke-miterlimit:4;stroke-dasharray:none;stroke-opacity:1" d="M70.021 28.475v2.427a2.876 2.876 0 0 1 .043-.002 2.876 2.876 0 0 1 .065 0 2.876 2.876 0 0 1 2.81 2.875 2.876 2.876 0 0 1-2.875 2.877 2.876 2.876 0 0 1-.043 0v2.612a31.174 31.174 0 0 1 5.627-.528 31.174 31.174 0 0 1 12.178 2.48v-9.923a2.813 2.813 0 0 0-2.82-2.818H70.02z" transform="scale(.26458)"/><path style="display:inline;fill:#000;fill-opacity:1;fill-rule:evenodd;stroke:none;stroke-width:.13834809;stroke-linecap:butt;stroke-linejoin:round;stroke-miterlimit:4;stroke-dasharray:none;stroke-opacity:1" d="M18.547 8.38a.554.554 0 0 1 .544.554.554.554 0 0 1-.544.553z"/><path style="fill:#000;fill-opacity:1;fill-rule:evenodd;stroke:none;stroke-width:.68288481;stroke-linecap:butt;stroke-linejoin:round;stroke-miterlimit:4;stroke-dasharray:none;stroke-opacity:1" d="M30.525 18.61a3.29 3.29 0 0 0-3.293 3.294v61.6a3.287 3.287 0 0 0 3.293 3.297H49.45a31.174 31.174 0 0 1-4.974-16.89 31.174 31.174 0 0 1 24.293-30.366v-17.64a3.29 3.29 0 0 0-3.293-3.296h-34.95zm17.397 2.833a3.362 3.362 0 0 1 .076 0 3.362 3.362 0 0 1 3.363 3.366 3.362 3.362 0 0 1-3.363 3.363 3.362 3.362 0 0 1-3.361-3.363 3.362 3.362 0 0 1 3.285-3.366z" transform="scale(.26458)"/><circle r=".647" cy="6.561" cx="12.7" style="display:inline;fill:#000;fill-opacity:1;fill-rule:evenodd;stroke:none;stroke-width:.16175599;stroke-linecap:butt;stroke-linejoin:round;stroke-miterlimit:4;stroke-dasharray:none;stroke-opacity:1"/></g><g style="display:inline"><path d="M25.051 19.22v-2.504h-4.38v-4.38h-2.503v4.38h-4.38v2.504h4.38v4.38h2.504v-4.38z" style="stroke-width:.60843354"/></g></svg>