<svg xmlns="http://www.w3.org/2000/svg" width="96" height="96" viewBox="0 0 25.4 25.4"><g style="display:inline"><g style="display:inline"><path transform="translate(1.535 2.781) scale(.23259)" d="M5.873 20.44a3.2 3.2 0 0 0-3.207 3.206V83.58a3.2 3.2 0 0 0 3.207 3.205H23.26a3.967 3.967 0 0 1-.342-1.603v-55.44a3.272 3.272 0 0 1-.047.002 3.272 3.272 0 0 1-3.271-3.273 3.272 3.272 0 0 1 3.197-3.272 3.272 3.272 0 0 1 .074 0 3.272 3.272 0 0 1 .047.002V20.44z" style="fill:#000;fill-opacity:1;fill-rule:evenodd;stroke:none;stroke-width:.66440314;stroke-linecap:butt;stroke-linejoin:round;stroke-miterlimit:4;stroke-dasharray:none;stroke-opacity:1"/><path transform="translate(1.535 2.781) scale(.23259)" d="M22.83 24.08a2.38 2.38 0 0 0-2.338 2.379 2.38 2.38 0 0 0 2.338 2.377z" style="display:inline;fill:#000;fill-opacity:1;fill-rule:evenodd;stroke:none;stroke-width:.59481531;stroke-linecap:butt;stroke-linejoin:round;stroke-miterlimit:4;stroke-dasharray:none;stroke-opacity:1"/></g><path style="fill:#000;fill-opacity:1;fill-rule:evenodd;stroke:none;stroke-width:.58406371;stroke-linecap:butt;stroke-linejoin:round;stroke-miterlimit:4;stroke-dasharray:none;stroke-opacity:1" d="M70.021 28.477v2.425a2.876 2.876 0 0 1 .108 0 2.876 2.876 0 0 1-.108 5.75v26.262l14.995-15.008 2.81-2.795V31.295a2.813 2.813 0 0 0-2.82-2.818z" transform="scale(.26458)"/><path style="display:inline;fill:#000;fill-opacity:1;fill-rule:evenodd;stroke:none;stroke-width:.13834809;stroke-linecap:butt;stroke-linejoin:round;stroke-miterlimit:4;stroke-dasharray:none;stroke-opacity:1" d="M18.547 8.38a.554.554 0 0 1 .544.554.554.554 0 0 1-.544.553z"/><path style="fill:#000;fill-opacity:1;fill-rule:evenodd;stroke:none;stroke-width:.68288481;stroke-linecap:butt;stroke-linejoin:round;stroke-miterlimit:4;stroke-dasharray:none;stroke-opacity:1" d="M30.525 18.611a3.29 3.29 0 0 0-3.293 3.295v61.6a3.287 3.287 0 0 0 3.293 3.297h15.618l22.625-22.645V21.906a3.29 3.29 0 0 0-3.293-3.295h-34.95zm17.397 2.834a3.362 3.362 0 0 1 .076 0 3.362 3.362 0 0 1 3.363 3.366 3.362 3.362 0 0 1-3.363 3.363 3.362 3.362 0 0 1-3.361-3.363 3.362 3.362 0 0 1 3.285-3.366z" transform="scale(.26458)"/><circle r=".647" cy="6.561" cx="12.7" style="display:inline;fill:#000;fill-opacity:1;fill-rule:evenodd;stroke:none;stroke-width:.16175599;stroke-linecap:butt;stroke-linejoin:round;stroke-miterlimit:4;stroke-dasharray:none;stroke-opacity:1"/></g><g style="display:inline"><path d="M24.575 16.037a.556.556 0 0 0 0-.787l-1.306-1.306a.556.556 0 0 0-.787 0l-1.027 1.022 2.093 2.093m-8.858 4.677v2.093h2.093l6.174-6.179-2.093-2.093z" style="stroke-width:.55816782"/></g></svg>