<svg xmlns="http://www.w3.org/2000/svg" width="96" height="96" viewBox="0 0 25.4 25.4"><defs><radialGradient id="a" cx="12.7" cy="1.862" fx="12.7" fy="1.862" r=".736" gradientUnits="userSpaceOnUse"><stop offset="0" stop-color="#fff"/><stop offset=".709" stop-color="#deffff"/><stop offset="1" stop-color="#deffff" stop-opacity="0"/></radialGradient></defs><g transform="translate(0 2.438)" fill-rule="evenodd"><path d="M7.44 0a.99.99 0 0 0-.992.992v18.54a.99.99 0 0 0 .992.992h10.52a.99.99 0 0 0 .992-.992V.992A.99.99 0 0 0 17.959 0zm5.235.853a1.012 1.012 0 0 1 1.036 1.012 1.012 1.012 0 1 1-2.025 0 1.012 1.012 0 0 1 .989-1.012z"/><circle cx="12.7" cy="1.862" r=".736" fill="url(#a)"/></g></svg>